<mxfile host="app.diagrams.net" modified="2022-02-24T14:47:22.992Z" agent="5.0 (Macintosh; Intel Mac OS X 10_15_7) AppleWebKit/537.36 (KHTML, like Gecko) Chrome/93.0.4577.82 Safari/537.36" etag="aSilgk25LVpmtBWfiCAY" version="16.6.3" type="github">
  <diagram id="hAvJj2w7L04vjeDlYvM1" name="Page-1">
    <mxGraphModel dx="1186" dy="712" grid="1" gridSize="10" guides="1" tooltips="1" connect="1" arrows="1" fold="1" page="1" pageScale="1" pageWidth="827" pageHeight="1169" math="0" shadow="0">
      <root>
        <mxCell id="0" />
        <mxCell id="1" parent="0" />
        <mxCell id="7wDyUipjQKVPkLC757Uc-1" value="Service" style="rounded=0;whiteSpace=wrap;html=1;" vertex="1" parent="1">
          <mxGeometry x="130" y="160" width="120" height="160" as="geometry" />
        </mxCell>
        <mxCell id="7wDyUipjQKVPkLC757Uc-2" value="" style="endArrow=none;html=1;rounded=0;" edge="1" parent="1">
          <mxGeometry width="50" height="50" relative="1" as="geometry">
            <mxPoint x="390" y="390" as="sourcePoint" />
            <mxPoint x="390" y="100" as="targetPoint" />
          </mxGeometry>
        </mxCell>
        <mxCell id="7wDyUipjQKVPkLC757Uc-3" value="DB" style="shape=cylinder3;whiteSpace=wrap;html=1;boundedLbl=1;backgroundOutline=1;size=15;" vertex="1" parent="1">
          <mxGeometry x="414" y="170" width="60" height="140" as="geometry" />
        </mxCell>
        <mxCell id="7wDyUipjQKVPkLC757Uc-4" value="" style="endArrow=classic;html=1;rounded=0;entryX=0;entryY=0.236;entryDx=0;entryDy=0;entryPerimeter=0;" edge="1" parent="1" target="7wDyUipjQKVPkLC757Uc-3">
          <mxGeometry width="50" height="50" relative="1" as="geometry">
            <mxPoint x="260" y="203" as="sourcePoint" />
            <mxPoint x="440" y="340" as="targetPoint" />
          </mxGeometry>
        </mxCell>
        <mxCell id="7wDyUipjQKVPkLC757Uc-5" value="requestData()" style="text;html=1;align=center;verticalAlign=middle;resizable=0;points=[];autosize=1;strokeColor=none;fillColor=none;" vertex="1" parent="1">
          <mxGeometry x="280" y="180" width="90" height="20" as="geometry" />
        </mxCell>
        <mxCell id="7wDyUipjQKVPkLC757Uc-6" value="" style="endArrow=classic;html=1;rounded=0;" edge="1" parent="1">
          <mxGeometry width="50" height="50" relative="1" as="geometry">
            <mxPoint x="420" y="220" as="sourcePoint" />
            <mxPoint x="250" y="220" as="targetPoint" />
          </mxGeometry>
        </mxCell>
        <mxCell id="7wDyUipjQKVPkLC757Uc-7" value="" style="endArrow=classic;html=1;rounded=0;exitX=1;exitY=0.5;exitDx=0;exitDy=0;entryX=0;entryY=0.5;entryDx=0;entryDy=0;entryPerimeter=0;" edge="1" parent="1" source="7wDyUipjQKVPkLC757Uc-1" target="7wDyUipjQKVPkLC757Uc-3">
          <mxGeometry width="50" height="50" relative="1" as="geometry">
            <mxPoint x="390" y="390" as="sourcePoint" />
            <mxPoint x="440" y="340" as="targetPoint" />
          </mxGeometry>
        </mxCell>
        <mxCell id="7wDyUipjQKVPkLC757Uc-8" value="requerst (n)" style="text;html=1;align=center;verticalAlign=middle;resizable=0;points=[];autosize=1;strokeColor=none;fillColor=none;" vertex="1" parent="1">
          <mxGeometry x="280" y="220" width="80" height="20" as="geometry" />
        </mxCell>
        <mxCell id="7wDyUipjQKVPkLC757Uc-9" value="" style="endArrow=classic;html=1;rounded=0;entryX=1.008;entryY=0.638;entryDx=0;entryDy=0;entryPerimeter=0;" edge="1" parent="1" target="7wDyUipjQKVPkLC757Uc-1">
          <mxGeometry width="50" height="50" relative="1" as="geometry">
            <mxPoint x="410" y="262" as="sourcePoint" />
            <mxPoint x="440" y="340" as="targetPoint" />
          </mxGeometry>
        </mxCell>
        <mxCell id="7wDyUipjQKVPkLC757Uc-10" value="onNext(1)" style="text;html=1;align=center;verticalAlign=middle;resizable=0;points=[];autosize=1;strokeColor=none;fillColor=none;" vertex="1" parent="1">
          <mxGeometry x="265" y="240" width="70" height="20" as="geometry" />
        </mxCell>
        <mxCell id="7wDyUipjQKVPkLC757Uc-11" value="" style="endArrow=classic;html=1;rounded=0;entryX=1.008;entryY=0.638;entryDx=0;entryDy=0;entryPerimeter=0;" edge="1" parent="1">
          <mxGeometry width="50" height="50" relative="1" as="geometry">
            <mxPoint x="409.04" y="282" as="sourcePoint" />
            <mxPoint x="250.00000000000003" y="282.08000000000004" as="targetPoint" />
          </mxGeometry>
        </mxCell>
        <mxCell id="7wDyUipjQKVPkLC757Uc-12" value="onNext(2)" style="text;html=1;align=center;verticalAlign=middle;resizable=0;points=[];autosize=1;strokeColor=none;fillColor=none;" vertex="1" parent="1">
          <mxGeometry x="264.04" y="260" width="70" height="20" as="geometry" />
        </mxCell>
        <mxCell id="7wDyUipjQKVPkLC757Uc-13" value="" style="endArrow=classic;html=1;rounded=0;entryX=1.008;entryY=0.638;entryDx=0;entryDy=0;entryPerimeter=0;" edge="1" parent="1">
          <mxGeometry width="50" height="50" relative="1" as="geometry">
            <mxPoint x="409.04" y="302" as="sourcePoint" />
            <mxPoint x="250.00000000000003" y="302.08000000000004" as="targetPoint" />
          </mxGeometry>
        </mxCell>
        <mxCell id="7wDyUipjQKVPkLC757Uc-14" value="onNext(n)" style="text;html=1;align=center;verticalAlign=middle;resizable=0;points=[];autosize=1;strokeColor=none;fillColor=none;" vertex="1" parent="1">
          <mxGeometry x="264.04" y="280" width="70" height="20" as="geometry" />
        </mxCell>
        <mxCell id="7wDyUipjQKVPkLC757Uc-15" value="" style="endArrow=classic;html=1;rounded=0;entryX=0.917;entryY=1.019;entryDx=0;entryDy=0;entryPerimeter=0;" edge="1" parent="1" target="7wDyUipjQKVPkLC757Uc-1">
          <mxGeometry width="50" height="50" relative="1" as="geometry">
            <mxPoint x="414" y="323" as="sourcePoint" />
            <mxPoint x="254.96000000000004" y="332.08000000000004" as="targetPoint" />
          </mxGeometry>
        </mxCell>
        <mxCell id="7wDyUipjQKVPkLC757Uc-16" value="onComplete()" style="text;html=1;align=center;verticalAlign=middle;resizable=0;points=[];autosize=1;strokeColor=none;fillColor=none;" vertex="1" parent="1">
          <mxGeometry x="259" y="310" width="90" height="20" as="geometry" />
        </mxCell>
      </root>
    </mxGraphModel>
  </diagram>
</mxfile>
